<?xml version="1.0" encoding="UTF-8" standalone="no"?>
<!-- Created with Inkscape (http://www.inkscape.org/) -->

<svg
   width="210mm"
   height="297mm"
   viewBox="0 0 210 297"
   version="1.1"
   id="svg5"
   inkscape:version="1.1 (c68e22c387, 2021-05-23)"
   sodipodi:docname="Logo.svg"
   xmlns:inkscape="http://www.inkscape.org/namespaces/inkscape"
   xmlns:sodipodi="http://sodipodi.sourceforge.net/DTD/sodipodi-0.dtd"
   xmlns="http://www.w3.org/2000/svg"
   xmlns:svg="http://www.w3.org/2000/svg">
  <sodipodi:namedview
     id="namedview7"
     pagecolor="#505050"
     bordercolor="#eeeeee"
     borderopacity="1"
     inkscape:pageshadow="0"
     inkscape:pageopacity="0"
     inkscape:pagecheckerboard="0"
     inkscape:document-units="mm"
     showgrid="false"
     inkscape:zoom="0.47433592"
     inkscape:cx="455.37348"
     inkscape:cy="447.99475"
     inkscape:window-width="1920"
     inkscape:window-height="1009"
     inkscape:window-x="-8"
     inkscape:window-y="-8"
     inkscape:window-maximized="1"
     inkscape:current-layer="layer1" />
  <defs
     id="defs2">
    <inkscape:perspective
       sodipodi:type="inkscape:persp3d"
       inkscape:vp_x="0 : 148.5 : 1"
       inkscape:vp_y="0 : 1000 : 0"
       inkscape:vp_z="210 : 148.5 : 1"
       inkscape:persp3d-origin="105 : 99 : 1"
       id="perspective139" />
  </defs>
  <g
     inkscape:label="Ebene 1"
     inkscape:groupmode="layer"
     id="layer1">
    <g
       id="g819"
       transform="translate(-0.91129886,27.756073)">
      <path
         style="fill:#dee2e3;stroke-width:0.264583"
         d="m 134.93165,102.30741 c 0,-0.35278 0.17639,-0.52916 0.52917,-0.52916 0.35278,0 0.52917,0.17638 0.52917,0.52916 0,0.35278 -0.17639,0.52917 -0.52917,0.52917 -0.35278,0 -0.52917,-0.17639 -0.52917,-0.52917 z m 1.5875,-1.98437 c 0,-0.21828 0.1786,-0.396878 0.39688,-0.396878 0.21828,0 0.39687,0.178598 0.39687,0.396878 0,0.21828 -0.17859,0.39687 -0.39687,0.39687 -0.21828,0 -0.39688,-0.17859 -0.39688,-0.39687 z m -4.69635,-4.540856 c -0.1819,-0.0734 -0.33073,-0.302125 -0.33073,-0.508278 0,-0.206155 -0.11906,-0.374827 -0.26458,-0.374827 -0.14552,0 -0.26459,-0.178594 -0.26459,-0.396875 0,-0.218281 0.11907,-0.396875 0.26459,-0.396875 0.14552,0 0.26458,0.178594 0.26458,0.396875 0,0.218281 0.10518,0.396875 0.23372,0.396875 0.12855,0 0.296,0.238125 0.37211,0.529166 0.0761,0.291042 0.11976,0.519766 0.097,0.508278 -0.0228,-0.01148 -0.1902,-0.08094 -0.3721,-0.154339 z m 2.05052,-1.27998 c 0,-0.218281 0.17859,-0.396875 0.39687,-0.396875 0.21829,0 0.39688,0.178594 0.39688,0.396875 0,0.218281 -0.17859,0.396875 -0.39688,0.396875 -0.21828,0 -0.39687,-0.178594 -0.39687,-0.396875 z m -3.43958,-1.719792 c 0,-0.145521 0.11906,-0.264583 0.26458,-0.264583 0.14552,0 0.26458,0.119062 0.26458,0.264583 0,0.145521 -0.11906,0.264583 -0.26458,0.264583 -0.14552,0 -0.26458,-0.119062 -0.26458,-0.264583 z m -0.8599,-0.718674 c -0.95914,-0.145299 -1.04369,-1.133409 -0.097,-1.133409 0.46255,0 0.66431,0.176286 0.75706,0.661458 0.0695,0.363802 0.11319,0.64362 0.097,0.621816 -0.0162,-0.0218 -0.35688,-0.08924 -0.75706,-0.149865 z m 1.91823,-1.397992 c 0,-0.145521 0.11906,-0.264584 0.26458,-0.264584 0.14552,0 0.26459,0.119063 0.26459,0.264584 0,0.14552 -0.11907,0.264583 -0.26459,0.264583 -0.14552,0 -0.26458,-0.119063 -0.26458,-0.264583 z M 92.267592,80.700934 c 0.181901,-0.0734 0.479557,-0.0734 0.661458,0 0.181901,0.0734 0.03307,0.133453 -0.330729,0.133453 -0.363802,0 -0.51263,-0.06006 -0.330729,-0.133453 z m 14.140638,-7.62998 c 0.005,-0.436562 0.0647,-0.583125 0.13178,-0.325694 0.0671,0.257432 0.0627,0.614619 -0.01,0.79375 -0.0725,0.179131 -0.12736,-0.03149 -0.12197,-0.468056 z m 13.97134,-7.805208 c 0,-0.145521 0.11906,-0.264583 0.26458,-0.264583 0.14552,0 0.26459,0.119062 0.26459,0.264583 0,0.145521 -0.11907,0.264584 -0.26459,0.264584 -0.14552,0 -0.26458,-0.119063 -0.26458,-0.264584 z m 9.26042,-10.583333 c 0,-0.145521 0.11906,-0.264583 0.26458,-0.264583 0.14552,0 0.26458,0.119062 0.26458,0.264583 0,0.145521 -0.11906,0.264584 -0.26458,0.264584 -0.14552,0 -0.26458,-0.119063 -0.26458,-0.264584 z M 77.966408,50.010898 c 0.149997,-0.390884 1.138163,-0.496657 1.138163,-0.12183 0,0.128559 -0.286787,0.288563 -0.637302,0.355569 -0.456472,0.08726 -0.598588,0.02093 -0.500861,-0.233739 z M 108.7379,47.538663 c 0,-0.293981 0.17639,-0.529166 0.39688,-0.529166 0.22048,0 0.39687,0.235185 0.39687,0.529166 0,0.293982 -0.17639,0.529167 -0.39687,0.529167 -0.22049,0 -0.39688,-0.235185 -0.39688,-0.529167 z"
         id="path835" />
      <path
         style="fill:#9aedf2;stroke-width:0.264583"
         d="m 61.906655,89.871996 c 0,-0.145521 0.297656,-0.264584 0.661458,-0.264584 0.363803,0 0.661459,0.119063 0.661459,0.264584 0,0.14552 -0.297656,0.264583 -0.661459,0.264583 -0.363802,0 -0.661458,-0.119063 -0.661458,-0.264583 z m 65.881245,-0.79375 c 0,-0.291042 0.11907,-0.529167 0.26459,-0.529167 0.14552,0 0.26458,0.238125 0.26458,0.529167 0,0.291041 -0.11906,0.529166 -0.26458,0.529166 -0.14552,0 -0.26459,-0.238125 -0.26459,-0.529166 z M 51.852489,88.019912 c 0,-0.145521 0.119062,-0.264583 0.264583,-0.264583 0.145521,0 0.264583,0.119062 0.264583,0.264583 0,0.145521 -0.119062,0.264584 -0.264583,0.264584 -0.145521,0 -0.264583,-0.119063 -0.264583,-0.264584 z m 11.641666,0 c 0,-0.145521 0.119063,-0.264583 0.264583,-0.264583 0.145521,0 0.264584,0.119062 0.264584,0.264583 0,0.145521 -0.119063,0.264584 -0.264584,0.264584 -0.14552,0 -0.264583,-0.119063 -0.264583,-0.264584 z m -7.14375,-0.597961 c 0,-0.231865 -0.208359,-0.476022 -0.463021,-0.54257 -0.43394,-0.113401 -0.433418,-0.122928 0.0083,-0.151694 0.47836,-0.03115 0.921599,0.648954 0.619695,0.950857 -0.09074,0.09074 -0.16498,-0.02473 -0.16498,-0.256593 z m 96.043745,-0.0635 c 0,-0.218281 0.11906,-0.396875 0.26459,-0.396875 0.14552,0 0.26458,0.178594 0.26458,0.396875 0,0.218281 -0.11906,0.396875 -0.26458,0.396875 -0.14553,0 -0.26459,-0.178594 -0.26459,-0.396875 z M 51.873377,85.21974 c 0.0127,-0.308227 0.07539,-0.37092 0.159852,-0.159854 0.07643,0.190995 0.06703,0.419201 -0.02089,0.507119 -0.08792,0.08792 -0.150452,-0.06835 -0.138964,-0.347265 z M 152.39415,84.580329 c 0,-0.145521 0.11906,-0.264583 0.26459,-0.264583 0.14552,0 0.26458,0.119062 0.26458,0.264583 0,0.145521 -0.11906,0.264583 -0.26458,0.264583 -0.14553,0 -0.26459,-0.119062 -0.26459,-0.264583 z m -0.38861,-0.871307 c -0.11326,-0.260938 -0.13169,-0.548672 -0.041,-0.639408 0.26868,-0.268685 0.48527,0.108728 0.36161,0.63011 -0.10963,0.462214 -0.1239,0.462627 -0.32066,0.0093 z m -0.80201,-1.509943 c -0.43138,-0.18537 -0.44649,-0.230828 -0.0818,-0.245986 0.24607,-0.01024 0.52099,0.100465 0.61092,0.245986 0.18803,0.304239 0.17884,0.304239 -0.52916,0 z M 73.763295,80.166256 c 0.190995,-0.07643 0.419198,-0.06703 0.507119,0.02088 0.08792,0.08792 -0.06835,0.150453 -0.347265,0.138964 -0.308227,-0.0127 -0.37092,-0.07539 -0.159854,-0.15985 z m 21.216276,-0.61301 c 0,-0.145521 0.12609,-0.264583 0.280199,-0.264583 0.154109,0 0.206613,0.119062 0.116676,0.264583 -0.08994,0.145521 -0.216027,0.264583 -0.280199,0.264583 -0.06417,0 -0.116676,-0.119062 -0.116676,-0.264583 z m -23.862109,-0.18074 c 0.190995,-0.07643 0.419198,-0.06703 0.507119,0.02088 0.08792,0.08792 -0.06835,0.150453 -0.347266,0.138964 -0.308226,-0.0127 -0.370919,-0.07539 -0.159853,-0.15985 z m -4.217473,-1.340614 c -0.329107,-0.419645 -0.319749,-0.429004 0.09989,-0.0999 0.254662,0.19972 0.463021,0.40808 0.463021,0.46302 0,0.217763 -0.217272,0.07761 -0.562916,-0.363124 z M 66.289291,76.98497 c -0.143586,-0.377084 -0.113194,-0.407474 0.148112,-0.148114 0.180821,0.179478 0.262115,0.39297 0.180654,0.474432 -0.08146,0.08146 -0.229407,-0.06538 -0.328766,-0.326318 z m 19.694447,-9.734849 c -0.642681,-0.654843 -1.10898,-1.190625 -1.03622,-1.190625 0.07276,0 0.658122,0.535782 1.300803,1.190625 0.642681,0.654844 1.10898,1.190625 1.03622,1.190625 -0.07276,0 -0.658122,-0.535781 -1.300803,-1.190625 z m -14.2875,-2.348854 c 0,-0.05494 0.20836,-0.2633 0.463021,-0.463021 0.419645,-0.329107 0.429003,-0.319749 0.0999,0.0999 -0.345644,0.44073 -0.562917,0.580888 -0.562917,0.363125 z m 61.333722,-3.78501 c 0.191,-0.07643 0.4192,-0.06703 0.50712,0.02088 0.0879,0.08792 -0.0684,0.150452 -0.34727,0.138964 -0.30822,-0.0127 -0.37092,-0.07539 -0.15985,-0.159851 z m -3.25768,-5.904677 c -0.0899,-0.145521 -0.0374,-0.264583 0.11667,-0.264583 0.15411,0 0.2802,0.119062 0.2802,0.264583 0,0.145521 -0.0525,0.264583 -0.11667,0.264583 -0.0642,0 -0.19026,-0.119062 -0.2802,-0.264583 z M 66.933738,52.83033 c 0,-0.145521 0.12609,-0.264583 0.280199,-0.264583 0.154108,0 0.206613,0.119062 0.116676,0.264583 -0.08994,0.145521 -0.216026,0.264583 -0.280198,0.264583 -0.06417,0 -0.116677,-0.119062 -0.116677,-0.264583 z M 117.60145,37.74908 c -0.0899,-0.14552 -0.0374,-0.264583 0.11667,-0.264583 0.15411,0 0.2802,0.119063 0.2802,0.264583 0,0.145521 -0.0525,0.264584 -0.11668,0.264584 -0.0642,0 -0.19026,-0.119063 -0.28019,-0.264584 z M 78.046238,33.515747 c 0,-0.145521 0.12609,-0.264583 0.280199,-0.264583 0.154109,0 0.206613,0.119062 0.116676,0.264583 -0.08994,0.145521 -0.216027,0.264584 -0.280199,0.264584 -0.06417,0 -0.116676,-0.119063 -0.116676,-0.264584 z m 27.384372,-9.260416 c -0.0899,-0.145521 -0.0374,-0.264583 0.11668,-0.264583 0.15411,0 0.2802,0.119062 0.2802,0.264583 0,0.145521 -0.0525,0.264583 -0.11668,0.264583 -0.0642,0 -0.19026,-0.119062 -0.2802,-0.264583 z m -2.64583,-2.38125 c -0.0899,-0.145521 -0.0374,-0.264583 0.11667,-0.264583 0.15411,0 0.2802,0.119062 0.2802,0.264583 0,0.145521 -0.0525,0.264583 -0.11667,0.264583 -0.0642,0 -0.19026,-0.119062 -0.2802,-0.264583 z m -0.76106,-0.93627 c -0.25532,-0.665346 -0.18,-0.837024 0.1319,-0.300656 0.15443,0.265575 0.22505,0.538601 0.15693,0.606723 -0.0681,0.06812 -0.1981,-0.06961 -0.28883,-0.306067 z"
         id="path833" />
      <path
         style="fill:#fdadc8;stroke-width:0.264583"
         d="m 79.236863,80.741251 c -0.582083,-0.212457 -1.758982,-0.38808 -2.615327,-0.390271 -1.844437,-0.0047 -4.925298,-0.532323 -4.925298,-0.843467 0,-0.120367 -0.565547,-0.220808 -1.256771,-0.223203 -2.421737,-0.0084 -4.256294,-1.714042 -4.28677,-3.985564 -0.02353,-1.753452 3.80216,-8.558543 5.937836,-10.562166 0.67518,-0.633431 0.869109,-0.665128 4.576686,-0.748036 l 3.871632,-0.08658 2.155396,1.092888 c 1.663727,0.843587 2.616698,1.571844 4.177652,3.192539 1.11224,1.154808 2.022255,2.165133 2.022255,2.245164 0,0.367728 2.124713,2.234874 3.122319,2.743814 0.611058,0.31174 1.111015,0.742971 1.111015,0.958294 0,0.215326 0.142427,0.391499 0.316507,0.391499 0.17408,0 0.769393,0.313848 1.322917,0.697441 0.987002,0.683993 1.006409,0.729914 1.006409,2.38125 0,1.281867 -0.09011,1.683809 -0.377476,1.683809 -0.207611,0 -0.41597,0.198982 -0.463021,0.442182 -0.160446,0.829336 -2.81891,1.218811 -8.949086,1.311076 -4.494083,0.06764 -5.910765,0.0045 -6.746875,-0.30067 z m 0.586549,-2.146228 c 0.322604,-0.08648 0.659228,-0.386228 0.748054,-0.666099 0.08883,-0.279868 0.434478,-0.773031 0.768115,-1.095912 0.450127,-0.435618 0.690115,-1.124805 0.930317,-2.671649 0.43361,-2.792325 0.234884,-3.002306 -3.185779,-3.366225 -3.386479,-0.360278 -3.68894,-0.365432 -6.792568,-0.115707 l -2.711979,0.218212 v 0.888217 c 0,0.488521 -0.119063,0.888219 -0.264584,0.888219 -0.158649,0 -0.264583,1.053333 -0.264583,2.630832 0,3.558058 -0.168571,3.455664 5.681268,3.450973 2.477855,-0.0021 4.769138,-0.07437 5.091739,-0.160861 z m 38.042618,2.268437 c -0.43656,-0.122717 -1.32953,-0.367366 -1.98438,-0.543669 -0.65484,-0.176299 -1.9253,-0.59949 -2.82325,-0.940421 -0.89794,-0.340932 -1.76971,-0.619874 -1.93726,-0.619874 -0.16755,0 -0.8365,-0.311692 -1.48655,-0.692653 -3.25717,-1.908828 -3.84287,-5.196848 -1.69252,-9.50156 1.07464,-2.151293 1.19736,-2.358178 2.4257,-4.089416 0.83617,-1.178491 2.63732,-2.120537 4.05439,-2.120537 1.84287,0 4.48266,0.573571 5.60765,1.21843 0.608,0.348509 1.22694,0.633653 1.37543,0.633653 0.14849,0 0.59116,0.297656 0.98371,0.661458 l 0.71372,0.661459 h -0.98357 c -0.95795,0 -1.73953,-0.467024 -1.73953,-1.039434 0,-0.186918 -1.16113,-0.283483 -3.40872,-0.283483 -4.02303,0 -3.72587,-0.319601 -3.73142,4.013255 -0.004,3.038579 0.11256,3.659661 0.68616,3.659661 0.23313,0 0.36856,0.29168 0.36856,0.79375 0,0.436563 0.11907,0.79375 0.26459,0.79375 0.14552,0 0.26458,0.238125 0.26458,0.529167 0,0.507786 0.17639,0.529167 4.36563,0.529167 h 4.36562 v -2.778125 c 0,-2.601735 0.0336,-2.778125 0.52917,-2.778125 0.4544,0 0.52916,-0.17639 0.52916,-1.248489 v -1.248487 l 1.60757,1.579216 c 0.88417,0.868571 1.77352,1.893731 1.97634,2.278136 0.20282,0.384405 0.72089,0.821672 1.15127,0.971704 0.66869,0.233105 0.80918,0.450638 0.96587,1.495578 0.10086,0.672539 0.13105,1.853814 0.0671,2.625056 -0.11188,1.349144 -0.19791,1.483992 -2.27132,3.560188 l -2.15503,2.157931 -3.64746,-0.02708 c -2.0061,-0.0149 -4.00464,-0.127487 -4.4412,-0.250203 z"
         id="path831" />
      <path
         style="fill:#00fdfd;stroke-width:0.264583"
         d="m 54.616417,89.480161 c -1.849285,-0.92755 -2.763928,-1.788771 -2.763928,-2.602489 0,-1.501093 0.661401,-3.6312 2.013963,-6.486163 0.78123,-1.64901 1.582774,-3.619926 1.781209,-4.379817 0.198435,-0.759888 0.780433,-1.970545 1.293328,-2.690344 1.224717,-1.718773 5.613728,-10.48952 6.679169,-13.347268 0.244143,-0.654844 0.801703,-1.845469 1.239023,-2.645833 0.43732,-0.800365 1.395359,-2.586302 2.128974,-3.96875 0.733616,-1.382448 1.438206,-2.553229 1.565756,-2.601736 0.127551,-0.04851 0.231911,-0.31424 0.231911,-0.590515 0,-1.370685 2.96714,-6.632781 5.957903,-10.566082 0.608571,-0.800365 1.622978,-2.407709 2.254237,-3.571875 0.631258,-1.164167 1.423019,-2.485094 1.759468,-2.935391 0.336447,-0.450298 0.609796,-0.926548 0.607438,-1.058333 -0.0024,-0.131785 0.493319,-1.251641 1.101503,-2.488568 0.608185,-1.236927 1.294723,-2.66226 1.52564,-3.167406 0.47947,-1.048865 2.637102,-3.78722 3.758504,-4.770093 0.656162,-0.575105 2.181662,-2.606273 3.576857,-4.7625 0.2354,-0.363802 0.84871,-0.98888 1.362912,-1.389063 0.806762,-0.627867 1.177239,-0.727604 2.702729,-0.727604 1.69395,0 1.854107,0.05804 3.83313,1.389063 1.858557,1.250002 3.073367,2.489345 5.411347,5.520617 0.35555,0.460987 1.54618,1.526981 2.64583,2.368874 3.35142,2.565835 6.11815,5.520931 8.15277,8.707797 0.51285,0.803288 1.80511,2.389343 2.8717,3.52457 1.06659,1.135224 2.32978,2.705618 2.80708,3.489764 0.4773,0.784148 1.13641,1.572461 1.46469,1.751809 0.32828,0.179348 1.14116,1.254511 1.80642,2.389256 0.66525,1.134742 1.88494,2.870933 2.71043,3.858199 2.48162,2.967995 4.66949,6.632361 5.18405,8.682511 0.0998,0.397756 0.46434,1.094007 0.81003,1.547222 0.34568,0.453216 0.87088,1.389444 1.1671,2.080506 0.30845,0.719572 0.7122,1.256477 0.94487,1.256477 0.26782,0 0.40628,0.250503 0.40628,0.735068 0,0.855689 1.4658,4.027416 2.69189,5.824763 0.46726,0.684958 1.39219,1.781159 2.0554,2.436002 0.66321,0.654844 1.62255,1.781191 2.13187,2.502996 0.68052,0.964425 1.61622,1.744414 3.5292,2.94192 2.62247,1.641639 5.32174,4.037002 6.27824,5.57136 0.28451,0.456401 0.75407,0.891739 1.04347,0.96742 0.29157,0.07625 0.52618,0.361061 0.52618,0.638786 0,0.610974 0.58606,1.924688 0.85989,1.927538 0.10914,0.0011 0.19844,0.478313 0.19844,1.060397 0,0.582083 -0.11906,1.058333 -0.26458,1.058333 -0.14553,0 -0.26459,0.159483 -0.26459,0.354404 0,0.779973 -1.46575,1.039455 -7.14375,1.264655 -3.1287,0.12409 -6.58151,0.347134 -7.67291,0.495652 -2.69815,0.367165 -3.77416,0.337222 -4.3812,-0.121922 -0.28248,-0.213651 -0.90055,-0.392245 -1.37349,-0.396875 -0.77718,-0.0076 -0.8599,-0.08477 -0.8599,-0.802164 0,-0.529167 -0.13229,-0.79375 -0.39687,-0.79375 -0.21828,0 -0.39688,0.178594 -0.39688,0.396875 0,0.246944 -0.24988,0.396875 -0.66146,0.396875 -0.41157,0 -0.66145,0.149931 -0.66145,0.396875 0,0.220485 -0.23519,0.396875 -0.52917,0.396875 -0.34831,0 -0.52917,0.17639 -0.52917,0.516091 0,0.57813 -1.26979,0.616294 -31.68385,0.952256 l -13.559895,0.149786 v -0.809066 c 0,-0.542782 -0.130623,-0.809067 -0.396875,-0.809067 -0.220486,0 -0.396875,0.235185 -0.396875,0.529167 0,0.293981 -0.17639,0.529166 -0.396875,0.529166 -0.218282,0 -0.396875,0.119063 -0.396875,0.264584 0,0.171124 -3.130902,0.264583 -8.863542,0.264583 -5.732639,0 -8.863541,-0.09346 -8.863541,-0.264583 0,-0.161052 -1.190625,-0.264584 -3.042708,-0.264584 -1.852084,0 -3.042709,0.103532 -3.042709,0.264584 0,0.46674 -1.18095,0.283675 -2.527738,-0.391835 z m 9.406905,-1.460249 c 0,-0.145521 -0.119063,-0.264583 -0.264584,-0.264583 -0.14552,0 -0.264583,0.119062 -0.264583,0.264583 0,0.145521 0.119063,0.264584 0.264583,0.264584 0.145521,0 0.264584,-0.119063 0.264584,-0.264584 z m -7.499635,-0.91463 c -0.08617,-0.224557 -0.36877,-0.394475 -0.627999,-0.377595 -0.441722,0.02877 -0.442244,0.03829 -0.0083,0.151694 0.254662,0.06655 0.463021,0.310705 0.463021,0.54257 0,0.231865 0.07424,0.347332 0.164978,0.256593 0.09074,-0.09074 0.09447,-0.348705 0.0083,-0.573262 z m 36.802394,-6.427557 c 0.06055,-0.181901 0.408504,-0.330729 0.773232,-0.330729 1.092533,0 1.655132,-0.954564 1.665205,-2.825361 l 0.0088,-1.634734 -1.322917,-0.85722 c -0.727604,-0.471472 -1.322917,-0.954739 -1.322917,-1.073926 0,-0.119186 -0.506015,-0.529719 -1.124479,-0.912296 -1.137578,-0.703694 -3.108854,-2.453711 -3.108854,-2.759911 0,-0.09156 -0.863203,-1.074111 -1.918229,-2.183448 -1.39134,-1.462963 -2.475717,-2.310918 -3.947853,-3.087123 L 80.998448,63.94283 h -4.086256 c -3.706286,0 -4.149776,0.04996 -4.769345,0.537315 -0.697291,0.54849 -4.150775,5.324454 -4.150775,5.740276 0,0.126098 -0.414015,0.997646 -0.920033,1.936776 -1.040182,1.930498 -1.239202,3.917945 -0.529723,5.289926 0.470747,0.910325 2.139362,1.84154 3.299797,1.84154 0.447033,0 1.255447,0.19278 1.796478,0.4284 0.608803,0.265136 2.042435,0.476594 3.761814,0.554857 1.527968,0.06955 3.254375,0.293317 3.836458,0.497258 1.4327,0.501965 13.918668,0.420921 14.089218,-0.09145 z m 34.804349,-1.683843 c 2.05217,-2.066004 2.1369,-2.200097 2.24969,-3.560188 0.0645,-0.77733 0.0358,-1.955914 -0.0636,-2.619076 -0.15804,-1.053915 -0.29532,-1.253593 -1.09013,-1.585685 -0.50012,-0.208965 -0.90931,-0.516649 -0.90931,-0.683744 0,-0.411522 -3.40668,-3.920498 -4.23333,-4.360458 -0.36381,-0.193622 -1.05576,-0.717727 -1.53769,-1.164679 -0.48192,-0.44695 -0.9965,-0.812639 -1.14351,-0.812639 -0.147,0 -0.76473,-0.285144 -1.37273,-0.633653 -1.12499,-0.644859 -3.76478,-1.21843 -5.60765,-1.21843 -1.23947,0 -3.24573,0.925732 -3.96015,1.827299 -1.49379,1.885093 -3.41286,5.582719 -3.68614,7.102388 -0.085,0.472943 -0.227,1.212498 -0.31546,1.643457 -0.17772,0.865864 0.58254,2.70779 1.62254,3.931041 0.90381,1.063059 4.06502,2.466837 7.7987,3.463123 0.65485,0.174736 1.54782,0.418105 1.98438,0.540822 0.43656,0.122716 2.44483,0.235307 4.46283,0.250203 l 3.66908,0.02708 z M 78.28118,50.28303 c 0.579919,-0.115985 0.877758,-0.355314 0.987798,-0.79375 0.120348,-0.479504 0.338169,-0.6277 0.92261,-0.6277 0.420785,0 0.765067,-0.119062 0.765067,-0.264583 0,-0.145521 0.645107,-0.264584 1.433568,-0.264584 1.774108,0 2.270598,-0.179752 2.270598,-0.822057 0,-0.484085 0.403185,-0.500859 12.038541,-0.500859 11.613648,0 12.038538,0.0176 12.038538,0.498308 0,0.275791 0.2363,0.560099 0.52917,0.636688 0.40533,0.105995 0.52917,0.360894 0.52917,1.089192 0,0.9505 2.6e-4,0.950812 1.19062,0.950812 h 1.19063 v -1.702218 c 0,-1.660279 -0.0179,-1.704279 -0.72761,-1.785938 -0.56439,-0.06494 -0.74585,-0.241429 -0.80896,-0.786812 -0.0743,-0.641885 -0.19637,-0.710989 -1.40248,-0.79375 -0.72662,-0.04986 -8.10165,-0.05298 -16.388955,-0.0069 l -15.06783,0.08372 v 0.64388 c 0,0.579797 -0.111916,0.644718 -1.124479,0.652293 -1.697969,0.0127 -2.050521,0.414319 -2.050521,2.335858 v 1.624478 h 1.422135 c 0.782175,0 1.795751,-0.07472 2.25239,-0.16605 z"
         id="path829" />
      <path
         style="fill:#b3e51c;stroke-width:0.264583"
         d="M 43.914989,62.752205 V 6.2636647 h 56.488541 56.48854 V 62.752205 119.24074 H 100.40353 43.914989 Z M 82.544155,101.1214 V 90.145813 l 13.824478,-0.134475 c 7.603467,-0.07396 17.902367,-0.198165 22.886457,-0.27601 8.7984,-0.137422 9.06198,-0.156732 9.06198,-0.663895 0,-0.287296 0.11906,-0.522354 0.26458,-0.522354 0.14925,0 0.26459,0.749652 0.26459,1.719792 0,1.674608 0.018,1.719791 0.68623,1.719791 0.46371,0 0.73109,0.171588 0.8246,0.529167 0.0761,0.291041 0.24356,0.529166 0.37211,0.529166 0.12855,0 0.23372,0.416719 0.23372,0.926042 0,0.509323 0.11907,0.926042 0.26459,0.926042 0.14552,0 0.26458,0.165856 0.26458,0.368567 0,0.202713 0.17859,0.4371 0.39687,0.520864 0.23201,0.08903 0.39688,0.485487 0.39688,0.954349 0,0.679136 0.10137,0.802053 0.66146,0.802053 0.47567,0 0.66146,0.142555 0.66146,0.507526 0,0.788591 0.28521,1.344557 0.68976,1.344557 0.22498,0 0.3697,0.283464 0.37148,0.727605 0.007,1.68063 0.32065,2.71198 0.82546,2.71198 0.43905,0 0.49455,0.22269 0.49455,1.98437 v 1.98438 h 0.79375 0.79375 l -0.003,-2.4474 c -0.004,-3.0559 -0.21884,-4.431768 -0.69317,-4.431768 -0.24662,0 -0.36226,-0.339947 -0.36226,-1.064948 0,-0.962993 -0.0733,-1.079611 -0.76587,-1.218123 -0.72372,-0.144743 -0.77584,-0.246311 -0.9471,-1.845469 -0.1344,-1.25504 -0.28473,-1.692293 -0.58181,-1.692293 -0.22033,0 -0.46286,-0.238125 -0.53897,-0.529167 -0.0888,-0.339704 -0.3609,-0.529167 -0.75987,-0.529167 -0.54553,0 -0.64281,-0.160779 -0.796,-1.315598 -0.12714,-0.958389 -0.30921,-1.358344 -0.67058,-1.473036 -0.33645,-0.106788 -0.49605,-0.40708 -0.49605,-0.933362 0,-0.700733 0.0833,-0.775105 0.8599,-0.767506 0.47294,0.0046 1.09101,0.183224 1.37349,0.396875 0.60704,0.459144 1.68305,0.489087 4.3812,0.121922 1.0914,-0.148518 4.54421,-0.381055 7.67291,-0.516749 3.31616,-0.143828 6.10233,-0.38997 6.68073,-0.590206 l 0.99219,-0.343488 v -1.787342 c 0,-1.015172 -0.11431,-1.787343 -0.26458,-1.787343 -0.14553,0 -0.26459,-0.238125 -0.26459,-0.529166 0,-0.291042 -0.11906,-0.529167 -0.26458,-0.529167 -0.14552,0 -0.26458,-0.181541 -0.26458,-0.403423 0,-0.221883 -0.29196,-0.514424 -0.64879,-0.650092 -0.35683,-0.135668 -0.82622,-0.589796 -1.04309,-1.009177 -0.63792,-1.233593 -3.33807,-3.548676 -6.20682,-5.321659 -2.27697,-1.407245 -2.85316,-1.91171 -3.903,-3.417165 -0.67742,-0.971405 -1.66693,-2.140585 -2.19892,-2.598174 -0.53198,-0.457592 -1.20111,-1.28778 -1.48696,-1.844863 -0.28584,-0.557083 -0.72807,-1.246939 -0.98274,-1.533012 -0.25466,-0.286072 -0.46302,-0.647456 -0.46302,-0.803076 0,-0.15562 -0.29765,-0.842089 -0.66146,-1.52549 -0.3638,-0.6834 -0.66145,-1.605187 -0.66145,-2.048414 0,-0.606113 -0.12067,-0.805871 -0.48682,-0.805871 -0.33907,0 -0.59762,-0.341273 -0.85189,-1.124479 -0.20079,-0.618464 -0.48774,-1.26002 -0.63766,-1.425683 -0.95457,-1.054767 -1.19702,-1.543802 -1.3547,-2.73249 -0.0997,-0.751472 -0.31344,-1.331931 -0.49047,-1.331931 -0.17258,0 -0.5256,-0.446484 -0.78449,-0.992188 -0.25889,-0.545703 -0.93578,-1.67545 -1.50421,-2.510549 -0.56843,-0.835099 -1.03351,-1.566643 -1.03351,-1.625655 0,-0.05901 -0.59645,-0.744966 -1.32545,-1.524347 -0.729,-0.779378 -1.39675,-1.684943 -1.48389,-2.012365 -0.0871,-0.327422 -0.24973,-0.595312 -0.3613,-0.595312 -0.11157,0 -0.37163,-0.327422 -0.57791,-0.727605 -0.8611,-1.670505 -1.58131,-2.642997 -2.20422,-2.976372 -0.364,-0.194804 -0.66182,-0.45286 -0.66182,-0.573452 0,-0.120595 -0.41672,-0.799306 -0.92604,-1.508247 -0.50932,-0.708938 -0.92604,-1.337474 -0.92604,-1.396743 0,-0.05927 -0.92295,-1.057082 -2.05101,-2.217359 -1.12806,-1.160277 -2.22544,-2.466785 -2.43864,-2.903347 -0.51217,-1.048755 -3.77214,-4.999713 -5.28837,-6.409297 -2.12262,-1.973323 -2.68664,-2.454244 -2.87833,-2.454244 -0.38971,0 -2.16032,-1.642186 -2.16032,-2.003638 0,-0.207687 -0.17859,-0.377612 -0.39687,-0.377612 -0.21828,0 -0.39688,-0.150261 -0.39688,-0.333912 0,-0.594318 -3.520338,-4.074551 -5.388572,-5.327179 -1.75089,-1.173952 -1.887532,-1.218076 -3.772061,-1.218076 -1.755963,0 -2.014011,0.06745 -2.530493,0.661458 -0.316323,0.363803 -0.732253,0.661459 -0.924293,0.661459 -0.192037,0 -0.34916,0.238125 -0.34916,0.529166 0,0.291042 -0.09627,0.529167 -0.213929,0.529167 -0.117663,0 -0.676238,0.714375 -1.241279,1.5875 -0.565042,0.873125 -1.123617,1.5875 -1.24128,1.5875 -0.11766,0 -0.213929,0.168663 -0.213929,0.374807 0,0.206144 -0.290803,0.593097 -0.646228,0.859896 -0.913601,0.68579 -3.374713,3.774576 -3.874665,4.862844 -0.230917,0.502651 -0.931312,1.985474 -1.556432,3.295161 -0.625121,1.309687 -1.259978,2.649141 -1.410795,2.976562 -0.150818,0.327422 -0.432689,0.595313 -0.62638,0.595313 -0.193691,0 -0.352166,0.229621 -0.352166,0.510267 0,0.280649 -0.178594,0.688862 -0.396875,0.907143 -0.218281,0.218281 -0.396875,0.583975 -0.396875,0.812649 0,0.228677 -0.09514,0.415774 -0.211431,0.415774 -0.116287,0 -0.35142,0.386953 -0.522518,0.859896 -0.251097,0.694081 -2.073947,3.372302 -4.108855,6.036932 -1.016396,1.33093 -3.623862,6.550419 -3.623862,7.254057 0,0.22066 -0.09515,0.401198 -0.211432,0.401198 -0.116287,0 -0.36493,0.424492 -0.552538,0.943314 -0.187609,0.518824 -0.509184,1.007811 -0.71461,1.086641 -0.205427,0.07883 -0.378586,0.338947 -0.384797,0.57804 -0.0062,0.239091 -0.363518,1.089557 -0.794016,1.889922 -1.470288,2.7335 -2.898857,5.766035 -2.898857,6.153628 0,0.212911 -0.273547,0.790678 -0.607882,1.283928 -0.334335,0.493249 -1.05483,1.965137 -1.6011,3.270858 -0.546269,1.305722 -1.076394,2.436815 -1.178055,2.513542 -0.101661,0.07673 -0.64444,1.071007 -1.206175,2.209512 -0.561735,1.138504 -1.186813,2.133509 -1.389062,2.21112 -0.20225,0.07761 -0.367726,0.31795 -0.367726,0.53409 0,0.216138 -0.22468,0.678614 -0.499289,1.027724 -0.274609,0.34911 -0.582553,1.082265 -0.684319,1.629233 -0.235641,1.266512 -1.190774,3.508031 -1.494807,3.508031 -0.127601,0 -0.232002,0.196871 -0.232002,0.437491 0,0.24062 -0.290464,1.051483 -0.645476,1.801915 -0.355013,0.750435 -0.82953,1.893017 -1.054483,2.539072 -0.471822,1.35505 -0.562151,4.217355 -0.133092,4.217355 0.155988,0 0.840309,0.327421 1.520712,0.727604 1.951684,1.147892 3.028665,1.462143 3.384216,0.987475 0.219899,-0.293568 0.868464,-0.392163 2.579687,-0.392163 1.347569,0 2.285936,0.108612 2.285936,0.264584 0,0.171489 3.351389,0.264583 9.525,0.264583 h 9.525 v 10.980211 10.9802 h 0.79375 0.79375 z"
         id="path827" />
      <path
         style="fill:#919191;stroke-width:0.264583"
         d="m 80.956655,111.83241 c 0,-0.14552 0.178593,-0.26458 0.396875,-0.26458 0.218281,0 0.396875,0.11906 0.396875,0.26458 0,0.14552 -0.178594,0.26458 -0.396875,0.26458 -0.218282,0 -0.396875,-0.11906 -0.396875,-0.26458 z M 133.7347,98.84789 c -0.0959,-0.302009 -0.10388,-0.619509 -0.0178,-0.705557 0.086,-0.08605 0.15645,0.04199 0.15645,0.284523 0,0.242535 0.17859,0.440973 0.39687,0.440973 0.21828,0 0.39688,0.119062 0.39688,0.264583 0,0.497083 -0.75768,0.265867 -0.93237,-0.284522 z m 1.72612,-1.038395 c -0.54492,-0.174514 -0.56823,-0.215767 -0.13229,-0.234159 0.29104,-0.01228 0.70776,0.09309 0.92604,0.234159 0.46359,0.299593 0.14173,0.299593 -0.79375,0 z m -3.175,-0.926041 c 0,-0.529167 0.13229,-0.661459 0.66146,-0.661459 0.52916,0 0.66146,0.132292 0.66146,0.661459 0,0.529166 -0.1323,0.661458 -0.66146,0.661458 -0.52917,0 -0.66146,-0.132292 -0.66146,-0.661458 z m 0.7276,-2.967633 c -0.90093,-0.136483 -0.9827,-0.868826 -0.097,-0.868826 0.40808,0 0.67943,0.186725 0.76898,0.529167 0.0761,0.291042 0.11976,0.511329 0.097,0.489524 -0.0228,-0.0218 -0.36879,-0.08924 -0.76898,-0.149865 z M 108.67484,89.94945 c 0.32912,-0.06329 0.80537,-0.06088 1.05834,0.0053 0.25296,0.06622 -0.0163,0.118004 -0.5984,0.115068 -0.58208,-0.0029 -0.78905,-0.05712 -0.45994,-0.120407 z m 40.0009,-10.594642 -0.9118,-0.992187 0.99219,0.911799 c 0.5457,0.501489 0.99219,0.947973 0.99219,0.992187 0,0.202042 -0.2239,0.0117 -1.07258,-0.911799 z m -33.85242,-5.335764 c 0,-0.278913 -0.0893,-0.557057 -0.19844,-0.618093 -0.10914,-0.06104 -0.0399,-0.07096 0.15393,-0.02204 0.19381,0.04891 0.52123,0.08893 0.72761,0.08893 0.20638,0 0.37523,0.238125 0.37523,0.529167 0,0.352777 -0.17639,0.529167 -0.52916,0.529167 -0.34511,0 -0.52917,-0.17639 -0.52917,-0.507119 z M 69.050405,72.938663 c 0,-0.145521 0.119062,-0.264584 0.264583,-0.264584 0.145521,0 0.264584,0.119063 0.264584,0.264584 0,0.145521 -0.119063,0.264583 -0.264584,0.264583 -0.145521,0 -0.264583,-0.119062 -0.264583,-0.264583 z m 12.121224,-1.76824 c 0.190994,-0.07643 0.419197,-0.06703 0.507118,0.02088 0.08792,0.08792 -0.06835,0.150453 -0.347265,0.138964 -0.308227,-0.0127 -0.37092,-0.07539 -0.159853,-0.15985 z m -11.39362,-0.259072 c 0.181901,-0.0734 0.479557,-0.0734 0.661458,0 0.181901,0.0734 0.03307,0.133453 -0.330729,0.133453 -0.363802,0 -0.51263,-0.06006 -0.330729,-0.133453 z m 54.041141,-4.578969 c 0,-0.140951 0.1786,-0.187745 0.39688,-0.103984 0.21828,0.08376 0.39687,0.199089 0.39687,0.256281 0,0.05719 -0.17859,0.103984 -0.39687,0.103984 -0.21828,0 -0.39688,-0.115327 -0.39688,-0.256281 z m -0.79375,-0.553085 c 0,-0.154109 0.11907,-0.206613 0.26459,-0.116676 0.14552,0.08994 0.26458,0.216027 0.26458,0.280199 0,0.06417 -0.11906,0.116676 -0.26458,0.116676 -0.14552,0 -0.26459,-0.12609 -0.26459,-0.280199 z m -9.61392,-0.733628 c 0.0489,-0.193802 0.0889,-0.461693 0.0889,-0.595313 0,-0.133617 0.1786,-0.242943 0.39688,-0.242943 0.21828,0 0.39687,0.178594 0.39687,0.396875 0,0.218281 -0.16867,0.396875 -0.37482,0.396875 -0.20616,0 -0.42477,0.0893 -0.48581,0.198437 -0.061,0.109141 -0.0709,0.03987 -0.022,-0.153931 z m 6.43892,-0.441381 c 0,-0.218281 0.11907,-0.396875 0.26459,-0.396875 0.14552,0 0.26458,0.178594 0.26458,0.396875 0,0.218281 -0.11906,0.396875 -0.26458,0.396875 -0.14552,0 -0.26459,-0.178594 -0.26459,-0.396875 z M 109.79624,49.919913 c 0,-0.14552 0.17859,-0.264583 0.39687,-0.264583 0.21828,0 0.39688,0.119063 0.39688,0.264583 0,0.145521 -0.1786,0.264584 -0.39688,0.264584 -0.21828,0 -0.39687,-0.119063 -0.39687,-0.264584 z M 74.606655,47.633977 c 0,-0.591095 0.784698,-1.141709 1.5875,-1.113928 0.590796,0.02045 0.576664,0.04093 -0.132292,0.191725 -0.555561,0.118171 -0.819121,0.346964 -0.878298,0.762445 -0.09695,0.680654 -0.57691,0.813567 -0.57691,0.159758 z m 9.524999,-0.09531 c 0,-0.291041 0.119063,-0.529166 0.264584,-0.529166 0.145521,0 0.264583,0.238125 0.264583,0.529166 0,0.291042 -0.119062,0.529167 -0.264583,0.529167 -0.145521,0 -0.264584,-0.238125 -0.264584,-0.529167 z m 27.058676,-0.71252 c 0.25744,-0.06708 0.61462,-0.06267 0.79375,0.0098 0.17914,0.07248 -0.0315,0.127363 -0.46805,0.121971 -0.43656,-0.0054 -0.58313,-0.06469 -0.3257,-0.131774 z M 77.833235,45.818872 c 0.0054,-0.436563 0.06469,-0.583126 0.131773,-0.325694 0.06708,0.257431 0.06267,0.614619 -0.0098,0.79375 -0.07248,0.179131 -0.127362,-0.03149 -0.12197,-0.468056 z m 31.963005,0 c 0,-0.411575 0.14993,-0.661458 0.39687,-0.661458 0.24695,0 0.39688,0.249883 0.39688,0.661458 0,0.411575 -0.14993,0.661458 -0.39688,0.661458 -0.24694,0 -0.39687,-0.249883 -0.39687,-0.661458 z m -2.16628,-0.842198 c 0.191,-0.07643 0.4192,-0.06703 0.50712,0.02088 0.0879,0.08792 -0.0683,0.150452 -0.34727,0.138964 -0.30822,-0.0127 -0.37091,-0.07539 -0.15985,-0.159851 z"
         id="path825" />
      <path
         style="fill:#636363;stroke-width:0.264583"
         d="m 82.014988,111.83241 c 0,-0.14552 0.119062,-0.26458 0.264583,-0.26458 0.145521,0 0.264584,0.11906 0.264584,0.26458 0,0.14552 -0.119063,0.26458 -0.264584,0.26458 -0.145521,0 -0.264583,-0.11906 -0.264583,-0.26458 z m 53.115102,-10.22939 c 0.1819,-0.0734 0.47956,-0.0734 0.66146,0 0.1819,0.0734 0.0331,0.13345 -0.33073,0.13345 -0.3638,0 -0.51263,-0.0601 -0.33073,-0.13345 z m 1.38906,-0.61852 c 0,-0.14553 0.1786,-0.26459 0.39688,-0.26459 0.21828,0 0.39687,0.11906 0.39687,0.26459 0,0.14552 -0.17859,0.26458 -0.39687,0.26458 -0.21828,0 -0.39688,-0.11906 -0.39688,-0.26458 z m -4.49791,-5.644448 c 0,-0.242536 -0.11907,-0.440973 -0.26459,-0.440973 -0.14552,0 -0.26458,-0.178594 -0.26458,-0.396875 0,-0.218281 -0.13891,-0.396875 -0.30868,-0.396875 -0.16977,0 -0.24635,-0.06233 -0.17016,-0.13852 0.0762,-0.07618 0.32341,-0.06757 0.54938,0.01916 0.4188,0.160708 0.86734,1.386358 0.6038,1.649902 -0.0799,0.07983 -0.14517,-0.05328 -0.14517,-0.295815 z m 1.85208,-0.0441 c 0,-0.218282 0.17859,-0.396875 0.39687,-0.396875 0.21829,0 0.39688,0.178593 0.39688,0.396875 0,0.218281 -0.17859,0.396875 -0.39688,0.396875 -0.21828,0 -0.39687,-0.178594 -0.39687,-0.396875 z m -3.70417,-3.79236 c 0,-0.435094 -0.15942,-0.573265 -0.66146,-0.573265 -0.3638,0 -0.66145,-0.119063 -0.66145,-0.264583 0,-0.145521 0.29539,-0.264584 0.65641,-0.264584 0.48272,0 0.70117,0.178292 0.82553,0.67378 0.093,0.370578 0.0953,0.747609 0.005,0.837848 -0.0902,0.09024 -0.16408,-0.0939 -0.16408,-0.409196 z m 1.32292,-0.0441 c 0,-0.291042 0.11906,-0.529167 0.26458,-0.529167 0.14552,0 0.26459,0.238125 0.26459,0.529167 0,0.291041 -0.11907,0.529166 -0.26459,0.529166 -0.14552,0 -0.26458,-0.238125 -0.26458,-0.529166 z m -49.477082,-2.38125 c 0,-0.291042 0.119062,-0.529167 0.264583,-0.529167 0.145521,0 0.264584,0.238125 0.264584,0.529167 0,0.291041 -0.119063,0.529166 -0.264584,0.529166 -0.145521,0 -0.264583,-0.238125 -0.264583,-0.529166 z M 130.43374,87.35845 c 0,-0.218281 0.11906,-0.396875 0.26458,-0.396875 0.14552,0 0.26458,0.178594 0.26458,0.396875 0,0.218281 -0.11906,0.396875 -0.26458,0.396875 -0.14552,0 -0.26458,-0.178594 -0.26458,-0.396875 z M 123.0254,73.996996 c 0,-0.291042 0.11907,-0.529167 0.26459,-0.529167 0.14552,0 0.26458,0.238125 0.26458,0.529167 0,0.291042 -0.11906,0.529167 -0.26458,0.529167 -0.14552,0 -0.26459,-0.238125 -0.26459,-0.529167 z M 78.261212,70.90584 c 0.190995,-0.07643 0.419198,-0.06703 0.507119,0.02088 0.08792,0.08792 -0.06835,0.150452 -0.347266,0.138964 -0.308226,-0.0127 -0.370919,-0.07539 -0.159853,-0.159851 z m 45.557938,-2.332802 c 0,-0.218281 0.1786,-0.396875 0.39688,-0.396875 0.21828,0 0.39687,0.178594 0.39687,0.396875 0,0.218281 -0.17859,0.396875 -0.39687,0.396875 -0.21828,0 -0.39688,-0.178594 -0.39688,-0.396875 z M 77.572785,50.078891 c 0.18764,-0.203605 0.382849,-0.330589 0.433803,-0.282186 0.156934,0.149082 -0.240808,0.652375 -0.515562,0.652375 -0.142672,0 -0.105879,-0.166584 0.08176,-0.370189 z m 33.281785,-0.158978 c 0,-0.14552 0.29766,-0.264583 0.66146,-0.264583 0.3638,0 0.66146,0.119063 0.66146,0.264583 0,0.145521 -0.29766,0.264584 -0.66146,0.264584 -0.3638,0 -0.66146,-0.119063 -0.66146,-0.264584 z M 79.12546,49.236407 c 0.0127,-0.308226 0.07539,-0.370919 0.159851,-0.159853 0.07643,0.190995 0.06703,0.419198 -0.02088,0.507119 -0.08792,0.08792 -0.150452,-0.06835 -0.138964,-0.347266 z m -2.402139,-0.63941 c 0,-0.145521 0.119063,-0.264584 0.264584,-0.264584 0.145521,0 0.264583,0.119063 0.264583,0.264584 0,0.145521 -0.119062,0.264583 -0.264583,0.264583 -0.145521,0 -0.264584,-0.119062 -0.264584,-0.264583 z m 3.704167,0 c 0,-0.145521 0.119062,-0.264584 0.264583,-0.264584 0.145521,0 0.264584,0.119063 0.264584,0.264584 0,0.145521 -0.119063,0.264583 -0.264584,0.264583 -0.145521,0 -0.264583,-0.119062 -0.264583,-0.264583 z m 2.844271,-0.439812 c 0.181901,-0.0734 0.479557,-0.0734 0.661458,0 0.181901,0.0734 0.03307,0.133453 -0.330729,0.133453 -0.363802,0 -0.51263,-0.06005 -0.330729,-0.133453 z M 106.42783,44.97406 c 0.25744,-0.06708 0.61462,-0.06267 0.79375,0.0098 0.17914,0.07248 -0.0315,0.127362 -0.46805,0.12197 -0.43656,-0.0054 -0.58313,-0.06469 -0.3257,-0.131773 z"
         id="path823" />
      <path
         style="fill:#000000;stroke-width:0.264583"
         d="m 81.750405,111.85131 c 0,-0.15592 -0.178594,-0.28348 -0.396875,-0.28348 -0.346404,0 -0.396875,-1.39641 -0.396875,-10.98021 0,-9.346517 0.05631,-10.980208 0.378473,-10.980208 0.208161,0 0.430069,-0.26789 0.493135,-0.595312 l 0.114663,-0.595313 0.03603,0.595313 c 0.01982,0.327422 0.155093,0.595312 0.300614,0.595312 0.172093,0 0.264584,3.79866 0.264584,10.866818 0,9.30661 -0.05698,10.92379 -0.396875,11.26369 -0.218282,0.21828 -0.396875,0.2693 -0.396874,0.11339 z m 54.570315,-5.21816 c -0.23151,-0.0956 -0.33073,-0.88399 -0.33073,-2.62799 0,-2.26368 -0.0456,-2.4915 -0.49831,-2.4915 -0.5273,0 -0.81481,-0.67175 -0.821,-1.918227 -0.002,-0.441365 -0.1476,-0.727604 -0.36963,-0.727604 -0.40113,0 -0.68307,-0.785284 -0.6887,-1.918229 -0.003,-0.588254 -0.12382,-0.727605 -0.63126,-0.727605 -0.52587,0 -0.65462,-0.16873 -0.79404,-1.040595 -0.1149,-0.71859 -0.33005,-1.092539 -0.69527,-1.208455 -0.37039,-0.117558 -0.52888,-0.400373 -0.52888,-0.94378 0,-0.426754 -0.11906,-0.77592 -0.26458,-0.77592 -0.14552,0 -0.26458,-0.228388 -0.26458,-0.507526 0,-0.909018 -0.30914,-1.344557 -0.95435,-1.344557 -0.5834,0 -0.63315,-0.103968 -0.63315,-1.322916 0,-1.224063 0.048,-1.322917 0.64206,-1.322917 0.38899,0 0.68974,-0.182494 0.76305,-0.463021 0.11524,-0.440973 0.12246,-0.440973 0.15169,0 0.0169,0.254662 0.14976,0.463021 0.29528,0.463021 0.14552,0 0.26458,0.595312 0.26458,1.322917 0,0.727604 0.11907,1.322916 0.26459,1.322916 0.14552,0 0.26458,0.344451 0.26458,0.765442 0,0.436319 0.17065,0.830927 0.39687,0.917739 0.2293,0.08799 0.39688,0.483534 0.39688,0.936774 0,0.659111 0.11628,0.797859 0.7276,0.868201 0.60067,0.06911 0.74172,0.229023 0.8085,0.916614 0.0545,0.560716 0.249,0.876853 0.59532,0.967417 0.38477,0.100621 0.51441,0.365811 0.51441,1.052261 0,0.808043 0.0949,0.936715 0.79375,1.076489 0.77655,0.155311 0.79375,0.193294 0.79375,1.752865 0,1.231486 0.0891,1.594116 0.39184,1.594116 0.54616,0 0.7038,0.8505 0.61265,3.30531 -0.0795,2.14068 -0.26713,2.46497 -1.20292,2.07876 z M 69.585715,78.236473 c -0.453388,-0.453387 -0.53531,-0.879486 -0.53531,-2.784269 0,-1.322916 0.108946,-2.248958 0.264583,-2.248958 0.145521,0 0.264584,-0.47625 0.264584,-1.058333 0,-0.582084 0.02976,-1.059286 0.06615,-1.060448 0.03638,-0.0011 1.482069,-0.178726 3.212643,-0.394586 2.803281,-0.349663 3.275748,-0.348591 4.331401,0.0098 0.651697,0.221258 1.413856,0.329618 1.69369,0.240803 0.631182,-0.20033 3.057112,0.399065 3.429071,0.847248 0.404122,0.48694 -0.243805,4.320633 -0.842912,4.98738 -0.261517,0.291042 -0.767601,0.848032 -1.124635,1.237755 l -0.649153,0.708589 -4.787399,0.02516 c -4.471271,0.02349 -4.822746,-0.01019 -5.322708,-0.510151 z m 46.295935,-4.206404 c 0,-0.339548 -0.25047,-0.546187 -0.79375,-0.654844 -0.56836,-0.113673 -0.79375,-0.310885 -0.79375,-0.694531 0,-0.29468 -0.23812,-0.773906 -0.52916,-1.064948 -0.45803,-0.458028 -0.52917,-0.881943 -0.52917,-3.15336 0,-2.844268 0.12295,-3.461223 0.68977,-3.461223 0.20271,0 0.36856,-0.178594 0.36856,-0.396875 0,-0.327581 0.48507,-0.396875 2.77813,-0.396875 1.79917,0 2.77812,0.09989 2.77812,0.283483 0,0.616405 0.79992,1.039434 1.96548,1.039434 0.66524,0 1.20952,0.119062 1.20952,0.264583 0,0.145521 0.1786,0.264583 0.39688,0.264583 0.21828,0 0.39687,0.119063 0.39687,0.264584 0,0.14552 0.1786,0.264583 0.39688,0.264583 0.26458,0 0.39687,0.264583 0.39687,0.79375 0,0.499425 -0.13572,0.79375 -0.36601,0.79375 -0.50556,0 -0.68448,0.84202 -0.68871,3.241146 -0.002,1.188217 -0.11488,2.05052 -0.26819,2.05052 -0.14552,0 -0.26459,0.238125 -0.26459,0.529167 0,0.503034 -0.17639,0.529167 -3.57187,0.529167 -3.31611,0 -3.57188,-0.03552 -3.57188,-0.496094 z M 74.937384,50.273852 c -0.380452,-0.153517 -0.459116,-2.206022 -0.08455,-2.206022 0.135401,0 0.284229,-0.26789 0.330729,-0.595312 0.07014,-0.493882 0.321221,-0.635463 1.473611,-0.830961 1.216612,-0.206394 1.389062,-0.313151 1.389062,-0.859896 v -0.624247 h 15.875 15.875004 l 0.002,0.595312 c 0.002,0.615545 0.97296,1.256771 1.90277,1.256771 0.39531,0 0.47642,0.225213 0.47642,1.322916 0,1.222558 -0.0485,1.322917 -0.63941,1.322917 -0.35167,0 -0.69946,0.148828 -0.77286,0.330729 -0.10676,0.264584 -0.13763,0.264584 -0.15434,0 -0.0115,-0.181901 -0.18415,-0.330729 -0.38368,-0.330729 -0.23556,0 -0.42433,-0.463947 -0.53828,-1.322917 l -0.17549,-1.322916 H 96.822595 c -12.232531,0 -12.690941,0.01792 -12.690941,0.496094 0,0.546708 -0.907568,0.826822 -2.678906,0.826822 -0.563893,0 -1.02526,0.119063 -1.02526,0.264584 0,0.145521 -0.297656,0.264583 -0.661458,0.264583 -0.411576,0 -0.661459,0.149932 -0.661459,0.396875 0,0.225047 -0.237286,0.396875 -0.548066,0.396875 -0.301434,0 -0.726659,0.178594 -0.94494,0.396875 -0.377264,0.377264 -1.96283,0.508683 -2.674181,0.221647 z m 2.315104,-1.676855 c 0,-0.145521 -0.119062,-0.264584 -0.264583,-0.264584 -0.145521,0 -0.264584,0.119063 -0.264584,0.264584 0,0.145521 0.119063,0.264583 0.264584,0.264583 0.145521,0 0.264583,-0.119062 0.264583,-0.264583 z"
         id="path821" />
    </g>
  </g>
</svg>
